<svg width="93" height="32" viewBox="0 0 93 32" fill="none" xmlns="http://www.w3.org/2000/svg">
<path d="M0 10.665V16.5892C2.01585 16.5878 4.01219 16.9856 5.87479 17.7598C7.73739 18.534 9.4297 19.6695 10.8549 21.1012C12.2797 22.5324 13.4097 24.2316 14.1802 26.1017C14.9507 27.9717 15.3466 29.9759 15.3453 31.9997H21.2402C21.2349 26.3438 18.9955 20.921 15.0135 16.9212C11.0314 12.9215 5.632 10.6715 0 10.665H0Z" fill="#FF3343"/>
<path d="M29.4799 0H20.1377C24.8637 3.00768 28.8682 7.02862 31.8638 11.7743V2.39241C31.8634 1.75775 31.612 1.14924 31.165 0.700619C30.7179 0.252003 30.1118 -1.57043e-07 29.4799 0Z" fill="#FF3343"/>
<path d="M5.86977 0H0V5.33388C7.04017 5.34123 13.7899 8.15302 18.7681 13.1523C23.7464 18.1515 26.5465 24.9298 26.554 31.9999H31.8645V26.1052C30.6638 19.6265 27.5376 13.6648 22.8976 9.00502C18.2575 4.34523 12.321 1.20578 5.86977 0Z" fill="#FF3343"/>
<path d="M46.3138 3.52246H42.5723V22.4613H46.3138V3.52246Z" fill="#FF3343"/>
<path d="M60.0709 11.7278C59.448 11.1592 58.7189 10.7204 57.9259 10.4369C56.2224 9.83615 54.3659 9.83615 52.6624 10.4369C51.869 10.7202 51.1396 11.159 50.5165 11.7278C49.9055 12.2935 49.4173 12.9799 49.0826 13.7438C48.7367 14.5772 48.5586 15.4712 48.5586 16.3741C48.5586 17.277 48.7367 18.171 49.0826 19.0044C49.4161 19.7706 49.9044 20.4588 50.5165 21.0255C51.1385 21.5947 51.8675 22.0333 52.6607 22.3156C54.364 22.9174 56.2209 22.9174 57.9242 22.3156C58.7176 22.0333 59.4469 21.5947 60.0692 21.0255C60.6811 20.4585 61.1693 19.7704 61.5031 19.0044C61.849 18.171 62.0271 17.277 62.0271 16.3741C62.0271 15.4712 61.849 14.5772 61.5031 13.7438C61.1687 12.9801 60.6811 12.2938 60.0709 11.7278ZM57.5016 18.6044C56.8957 19.1525 56.1091 19.4558 55.2937 19.4558C54.4783 19.4558 53.6917 19.1525 53.0858 18.6044C52.5766 17.9731 52.2987 17.1853 52.2987 16.3728C52.2987 15.5604 52.5766 14.7726 53.0858 14.1413C53.6917 13.5932 54.4783 13.2899 55.2937 13.2899C56.1091 13.2899 56.8957 13.5932 57.5016 14.1413C58.0108 14.7726 58.2887 15.5604 58.2887 16.3728C58.2887 17.1853 58.0108 17.9731 57.5016 18.6044Z" fill="#FF3343"/>
<path d="M73.5031 11.8901H73.4562C73.2831 11.6462 73.0822 11.4234 72.8575 11.2265C72.5852 10.9847 72.2838 10.7781 71.9602 10.6118C71.1424 10.1904 70.2346 9.97562 69.3155 9.98611C68.51 9.97194 67.7135 10.157 66.9961 10.5251C66.3276 10.8727 65.7374 11.3545 65.262 11.9406C64.7772 12.5448 64.4053 13.2321 64.1643 13.9693C63.9081 14.7287 63.7775 15.5252 63.7778 16.3271C63.7683 17.1879 63.912 18.0434 64.2021 18.8534C64.4649 19.5927 64.8746 20.2705 65.4062 20.8459C65.9359 21.4089 66.5787 21.8524 67.2921 22.1469C68.0677 22.4644 68.899 22.6219 69.7364 22.6101C70.3559 22.5993 70.9684 22.4764 71.5443 22.2471C72.1902 22.0011 72.7498 21.5697 73.1535 21.0067H73.2038V22.1856C73.2178 22.5789 73.1533 22.971 73.014 23.3387C72.8748 23.7065 72.6636 24.0426 72.3929 24.3271C72.0495 24.6322 71.648 24.8642 71.2127 25.009C70.7774 25.1537 70.3174 25.2082 69.8605 25.1692C69.1361 25.1774 68.4181 25.0322 67.7533 24.7431C67.0918 24.4463 66.4746 24.0586 65.9194 23.5911L63.8491 26.6943C64.6953 27.3788 65.6845 27.8627 66.7429 28.1098C67.7902 28.3517 68.8614 28.4734 69.936 28.4728C72.2973 28.4728 74.0557 27.8757 75.2112 26.6816C76.3668 25.4875 76.9448 23.7382 76.9453 21.4337V10.2867H73.5073L73.5031 11.8901ZM73.2784 17.4387C73.1308 17.7952 72.9145 18.1189 72.642 18.3911C72.3645 18.6688 72.0392 18.8936 71.6818 19.0547C71.3108 19.2202 70.9093 19.3057 70.5033 19.3057C70.0973 19.3057 69.6958 19.2202 69.3247 19.0547C68.9721 18.8914 68.6511 18.6667 68.3763 18.3911C68.1026 18.1165 67.8855 17.7905 67.7373 17.4315C67.5891 17.0726 67.5129 16.6879 67.5129 16.2994C67.5129 15.9108 67.5891 15.5261 67.7373 15.1672C67.8855 14.8082 68.1026 14.4822 68.3763 14.2076C68.6512 13.932 68.9722 13.7071 69.3247 13.5431C69.6959 13.3782 70.0974 13.293 70.5033 13.293C70.9092 13.293 71.3106 13.3782 71.6818 13.5431C72.0391 13.7048 72.3643 13.9299 72.642 14.2076C73.0536 14.623 73.3336 15.1515 73.4469 15.7265C73.5601 16.3014 73.5015 16.8971 73.2784 17.4387Z" fill="#FF3343"/>
<path d="M91.0015 11.7278C90.3786 11.1592 89.6496 10.7204 88.8565 10.4369C87.153 9.83615 85.2965 9.83615 83.593 10.4369C82.7997 10.7202 82.0703 11.159 81.4472 11.7278C80.8362 12.2935 80.348 12.9799 80.0133 13.7438C79.6674 14.5772 79.4893 15.4712 79.4893 16.3741C79.4893 17.277 79.6674 18.171 80.0133 19.0044C80.3468 19.7706 80.835 20.4588 81.4472 21.0255C82.0697 21.5949 82.7993 22.0335 83.593 22.3156C85.2964 22.9174 87.1532 22.9174 88.8565 22.3156C89.65 22.0333 90.3792 21.5947 91.0015 21.0255C91.6137 20.4588 92.102 19.7706 92.4354 19.0044C92.7814 18.171 92.9595 17.277 92.9595 16.3741C92.9595 15.4712 92.7814 14.5772 92.4354 13.7438C92.1007 12.9799 91.6126 12.2935 91.0015 11.7278ZM88.4322 18.6044C87.8264 19.1525 87.0398 19.4558 86.2244 19.4558C85.4089 19.4558 84.6224 19.1525 84.0165 18.6044C83.5073 17.9731 83.2294 17.1853 83.2294 16.3728C83.2294 15.5604 83.5073 14.7726 84.0165 14.1413C84.6224 13.5932 85.4089 13.2899 86.2244 13.2899C87.0398 13.2899 87.8264 13.5932 88.4322 14.1413C88.9415 14.7726 89.2193 15.5604 89.2193 16.3728C89.2193 17.1853 88.9415 17.9731 88.4322 18.6044Z" fill="#FF3343"/>
</svg>
