<svg width="49" height="61" viewBox="0 0 49 61" fill="none" xmlns="http://www.w3.org/2000/svg">
<path d="M27.5625 36.6H15.3125C14.5003 36.6 13.7213 36.9213 13.147 37.4933C12.5727 38.0653 12.25 38.8411 12.25 39.65C12.25 40.4589 12.5727 41.2347 13.147 41.8067C13.7213 42.3787 14.5003 42.7 15.3125 42.7H27.5625C28.3747 42.7 29.1537 42.3787 29.728 41.8067C30.3023 41.2347 30.625 40.4589 30.625 39.65C30.625 38.8411 30.3023 38.0653 29.728 37.4933C29.1537 36.9213 28.3747 36.6 27.5625 36.6ZM39.8125 6.1H36.1987C35.5669 4.32017 34.3978 2.77854 32.8516 1.68646C31.3055 0.59438 29.458 0.00530551 27.5625 0H21.4375C19.542 0.00530551 17.6945 0.59438 16.1484 1.68646C14.6022 2.77854 13.4331 4.32017 12.8013 6.1H9.1875C6.75082 6.1 4.41395 7.06402 2.69096 8.77997C0.967966 10.4959 0 12.8233 0 15.25V51.85C0 54.2767 0.967966 56.6041 2.69096 58.32C4.41395 60.036 6.75082 61 9.1875 61H39.8125C42.2492 61 44.5861 60.036 46.309 58.32C48.032 56.6041 49 54.2767 49 51.85V15.25C49 12.8233 48.032 10.4959 46.309 8.77997C44.5861 7.06402 42.2492 6.1 39.8125 6.1ZM18.375 9.15C18.375 8.34109 18.6977 7.56531 19.272 6.99332C19.8463 6.42134 20.6253 6.1 21.4375 6.1H27.5625C28.3747 6.1 29.1537 6.42134 29.728 6.99332C30.3023 7.56531 30.625 8.34109 30.625 9.15V12.2H18.375V9.15ZM42.875 51.85C42.875 52.6589 42.5523 53.4347 41.978 54.0067C41.4037 54.5787 40.6247 54.9 39.8125 54.9H9.1875C8.37527 54.9 7.59632 54.5787 7.02199 54.0067C6.44766 53.4347 6.125 52.6589 6.125 51.85V15.25C6.125 14.4411 6.44766 13.6653 7.02199 13.0933C7.59632 12.5213 8.37527 12.2 9.1875 12.2H12.25V15.25C12.25 16.0589 12.5727 16.8347 13.147 17.4067C13.7213 17.9787 14.5003 18.3 15.3125 18.3H33.6875C34.4997 18.3 35.2787 17.9787 35.853 17.4067C36.4273 16.8347 36.75 16.0589 36.75 15.25V12.2H39.8125C40.6247 12.2 41.4037 12.5213 41.978 13.0933C42.5523 13.6653 42.875 14.4411 42.875 15.25V51.85ZM33.6875 24.4H15.3125C14.5003 24.4 13.7213 24.7213 13.147 25.2933C12.5727 25.8653 12.25 26.6411 12.25 27.45C12.25 28.2589 12.5727 29.0347 13.147 29.6067C13.7213 30.1787 14.5003 30.5 15.3125 30.5H33.6875C34.4997 30.5 35.2787 30.1787 35.853 29.6067C36.4273 29.0347 36.75 28.2589 36.75 27.45C36.75 26.6411 36.4273 25.8653 35.853 25.2933C35.2787 24.7213 34.4997 24.4 33.6875 24.4Z" fill="white"/>
</svg>
