<svg width="65" height="88" viewBox="0 0 65 88" fill="none" xmlns="http://www.w3.org/2000/svg">
<path d="M48.1295 59.3506C47.9959 59.4954 47.8771 59.6533 47.775 59.8217C47.6581 59.972 47.5681 60.1414 47.5091 60.3223C47.4191 60.4976 47.3592 60.6867 47.3318 60.8817C47.2121 61.4458 47.2742 62.0332 47.5091 62.5601C47.6418 62.9254 47.8535 63.2573 48.1292 63.5321C48.4049 63.8068 48.7379 64.0178 49.1045 64.1501C49.4552 64.3149 49.8397 64.3956 50.2273 64.3856C50.6114 64.3903 50.9928 64.3203 51.35 64.1795C51.7031 64.0088 52.0311 63.7908 52.325 63.5317C52.5988 63.2566 52.8155 62.9303 52.9625 62.5716C53.1095 62.2128 53.1841 61.8287 53.1818 61.4412C53.1918 61.0549 53.1109 60.6717 52.9455 60.3223C52.7958 59.9655 52.586 59.6368 52.325 59.3506C52.0489 59.0777 51.7215 58.8618 51.3615 58.7153C51.0016 58.5688 50.6161 58.4945 50.2273 58.4967C49.8412 58.5014 49.4598 58.5814 49.1045 58.7323C48.7419 58.8724 48.4105 59.0825 48.1295 59.3506ZM35.9568 71.5995C35.8399 71.7498 35.7499 71.9192 35.6909 72.1001C35.5803 72.2715 35.5004 72.4608 35.4545 72.6595C35.3663 73.0372 35.3663 73.4301 35.4545 73.8078L35.6318 74.3378L35.8977 74.8678L36.2523 75.3095C36.8333 75.8615 37.6064 76.1676 38.4091 76.1634C38.7979 76.1656 39.1834 76.0914 39.5434 75.9448C39.9033 75.7983 40.2307 75.5824 40.5068 75.3095C40.7678 75.0233 40.9776 74.6947 41.1273 74.3378C41.3112 73.8918 41.3823 73.4075 41.3344 72.9276C41.2865 72.4477 41.1211 71.9869 40.8527 71.5856C40.5843 71.1844 40.2211 70.8549 39.795 70.6263C39.3689 70.3977 38.893 70.2769 38.4091 70.2745C37.6268 70.2853 36.8776 70.5903 36.3114 71.1284L35.9568 71.5995ZM48.1295 71.1284C47.8606 71.4084 47.6497 71.7386 47.5091 72.1001C47.2611 72.6331 47.1788 73.2278 47.2727 73.8078L47.45 74.3378C47.5147 74.5255 47.6041 74.7037 47.7159 74.8678C47.825 75.0221 47.9434 75.1696 48.0705 75.3095C48.3514 75.5776 48.6828 75.7877 49.0455 75.9278C49.3991 76.0836 49.7815 76.1641 50.1682 76.1641C50.5548 76.1641 50.9373 76.0836 51.2909 75.9278C51.649 75.7787 51.9787 75.5696 52.2659 75.3095C52.5504 75.0393 52.778 74.7152 52.9353 74.3562C53.0925 73.9972 53.1764 73.6106 53.1818 73.2189C53.1918 72.8327 53.1109 72.4495 52.9455 72.1001C52.7958 71.7432 52.586 71.4146 52.325 71.1284C52.0378 70.8683 51.708 70.6592 51.35 70.5101C50.9963 70.3543 50.6139 70.2738 50.2273 70.2738C49.8406 70.2738 49.4582 70.3543 49.1045 70.5101C48.7419 70.6502 48.4105 70.8603 48.1295 71.1284ZM35.6909 62.5601C35.8315 62.9215 36.0424 63.2517 36.3114 63.5317C36.8776 64.0698 37.6268 64.3748 38.4091 64.3856C38.893 64.3832 39.3689 64.2624 39.795 64.0338C40.2211 63.8052 40.5843 63.4757 40.8527 63.0745C41.1211 62.6732 41.2865 62.2124 41.3344 61.7325C41.3823 61.2526 41.3112 60.7684 41.1273 60.3223C40.9776 59.9655 40.7678 59.6368 40.5068 59.3506C40.2307 59.0777 39.9033 58.8618 39.5434 58.7153C39.1834 58.5688 38.7979 58.4945 38.4091 58.4967C37.6268 58.5076 36.8776 58.8126 36.3114 59.3506C35.9014 59.7647 35.6237 60.2905 35.5133 60.8617C35.4028 61.4328 35.4647 62.0238 35.6909 62.5601ZM48.1295 47.5728C47.8686 47.859 47.6587 48.1877 47.5091 48.5445C47.2828 49.0807 47.221 49.6717 47.3314 50.2429C47.4419 50.8141 47.7196 51.3399 48.1295 51.7539C48.4105 52.022 48.7419 52.2321 49.1045 52.3723C49.4582 52.528 49.8406 52.6085 50.2273 52.6085C50.6139 52.6085 50.9963 52.528 51.35 52.3723C51.708 52.2232 52.0378 52.014 52.325 51.7539C52.5988 51.4788 52.8155 51.1525 52.9625 50.7938C53.1095 50.435 53.1841 50.0509 53.1818 49.6634C53.1918 49.2771 53.1109 48.8939 52.9455 48.5445C52.7958 48.1877 52.586 47.859 52.325 47.5728C51.9095 47.1643 51.3819 46.8875 50.8088 46.7775C50.2356 46.6674 49.6426 46.729 49.1045 46.9545C48.7419 47.0946 48.4105 47.3048 48.1295 47.5728ZM11.8182 49.6634V73.2189C11.8182 73.9999 12.1295 74.7488 12.6835 75.301C13.2376 75.8532 13.9891 76.1634 14.7727 76.1634H26.5909C27.3745 76.1634 28.126 75.8532 28.6801 75.301C29.2342 74.7488 29.5455 73.9999 29.5455 73.2189L29.5455 49.6634C29.5455 48.8825 29.2342 48.1335 28.6801 47.5813C28.126 47.0292 27.3745 46.7189 26.5909 46.7189H14.7727C13.9891 46.7189 13.2376 47.0292 12.6835 47.5813C12.1295 48.1335 11.8182 48.8825 11.8182 49.6634ZM23.6364 52.6078L23.6364 70.2745H17.7273L17.7273 52.6078H23.6364ZM0 43.7745L0 79.1078C0 81.4506 0.933845 83.6974 2.5961 85.3539C4.25835 87.0105 6.51285 87.9412 8.86364 87.9412H56.1364C58.4871 87.9412 60.7416 87.0105 62.4039 85.3539C64.0662 83.6974 65 81.4506 65 79.1078V43.7745C65 41.4317 64.0662 39.185 62.4039 37.5284C60.7416 35.8718 58.4871 34.9412 56.1364 34.9412H8.86364C6.51285 34.9412 4.25835 35.8718 2.5961 37.5284C0.933845 39.185 0 41.4317 0 43.7745ZM56.1364 40.8301C56.92 40.8301 57.6715 41.1403 58.2255 41.6925C58.7796 42.2446 59.0909 42.9936 59.0909 43.7745V79.1078C59.0909 79.8887 58.7796 80.6377 58.2255 81.1899C57.6715 81.7421 56.92 82.0523 56.1364 82.0523H8.86364C8.08004 82.0523 7.32854 81.7421 6.77446 81.1899C6.22037 80.6377 5.90909 79.8887 5.90909 79.1078L5.90909 43.7745C5.90909 42.9936 6.22037 42.2446 6.77446 41.6925C7.32854 41.1403 8.08004 40.8301 8.86364 40.8301H56.1364ZM35.9568 48.0439C35.8399 48.1943 35.7499 48.3636 35.6909 48.5445C35.6009 48.7198 35.541 48.9089 35.5136 49.1039C35.4254 49.4817 35.4254 49.8745 35.5136 50.2523L35.6909 50.7823L35.9568 51.3123L36.3114 51.7539C36.8776 52.292 37.6268 52.597 38.4091 52.6078C38.893 52.6054 39.3689 52.4846 39.795 52.256C40.2211 52.0274 40.5843 51.698 40.8527 51.2967C41.1211 50.8954 41.2865 50.4346 41.3344 49.9547C41.3823 49.4748 41.3112 48.9906 41.1273 48.5445C40.9776 48.1877 40.7678 47.859 40.5068 47.5728C40.2307 47.2999 39.9033 47.084 39.5434 46.9375C39.1834 46.791 38.7979 46.7167 38.4091 46.7189C37.6268 46.7298 36.8776 47.0348 36.3114 47.5728L35.9568 48.0439Z" fill="#FF3343"/>
<path d="M12.0922 18.0043C11.935 18.1639 11.8109 18.3529 11.727 18.5606C11.6431 18.7683 11.601 18.9905 11.6031 19.2145L11.7415 29.419C11.7454 29.6429 11.7935 29.8639 11.8831 30.0692C11.9726 30.2745 12.1018 30.4602 12.2632 30.6155C12.4228 30.7726 12.6119 30.8967 12.8196 30.9806C13.0272 31.0646 13.2494 31.1067 13.4734 31.1046L20.2844 31.0122L46.5898 30.6555C46.8138 30.6515 47.0348 30.6034 47.2401 30.5139C47.4454 30.4244 47.6311 30.2952 47.7864 30.1338L52.8194 24.9623C53.1342 24.6389 53.3077 24.2036 53.3015 23.7522C53.2954 23.3009 53.1102 22.8704 52.7868 22.5556L47.6153 17.5226C47.4537 17.3472 47.257 17.2077 47.038 17.1132C46.819 17.0188 46.5826 16.9714 46.3441 16.9741L20.1119 17.402L13.3481 17.4216C13.1217 17.4314 12.8986 17.4792 12.688 17.5629C12.5816 17.6487 12.486 17.747 12.4031 17.8556C12.3421 17.9068 12.2865 17.964 12.2369 18.0264L12.0922 18.0043ZM45.7413 20.4486L49.193 23.8079L45.8337 27.2596L21.935 27.5837L21.8426 20.7727L45.7413 20.4486ZM18.4492 20.8187L18.5415 27.6297L15.1358 27.6638L15.0438 20.8769L18.4492 20.8187Z" fill="#FF3343"/>
</svg>
