<svg width="64" height="61" viewBox="0 0 64 61" fill="none" xmlns="http://www.w3.org/2000/svg">
<path d="M45.2468 12.5156L33.4465 0.610035C33.25 0.415085 33.0169 0.260849 32.7606 0.156172C32.5043 0.0514943 32.2299 -0.00156534 31.9531 3.51576e-05C31.4012 0.00235867 30.8724 0.221435 30.4806 0.610035L0.611667 30.3738C0.219898 30.7679 0 31.3011 0 31.8568C0 32.4125 0.219898 32.9456 0.611667 33.3397L12.5172 45.2452C12.7137 45.4402 12.9468 45.5944 13.2031 45.6991C13.4594 45.8038 13.7338 45.8568 14.0106 45.8552C14.5625 45.8529 15.0913 45.6338 15.483 45.2452L21.4358 39.2925L39.2941 21.4342L45.2468 15.4814C45.6386 15.0873 45.8585 14.5542 45.8585 13.9985C45.8585 13.4428 45.6386 12.9097 45.2468 12.5156ZM37.8006 16.9749L36.3072 15.4814C35.9131 15.0896 35.38 14.8697 34.8243 14.8697C34.2686 14.8697 33.7354 15.0896 33.3413 15.4814C33.1442 15.677 32.9877 15.9096 32.8809 16.1659C32.7741 16.4223 32.7191 16.6972 32.7191 16.9749C32.7191 17.2525 32.7741 17.5275 32.8809 17.7838C32.9877 18.0401 33.1442 18.2728 33.3413 18.4683L34.8348 19.9618L31.8479 22.9276L27.3886 18.4683C26.9862 18.1237 26.4686 17.9436 25.9392 17.9641C25.4098 17.9845 24.9076 18.204 24.533 18.5786C24.1584 18.9532 23.9389 19.4554 23.9185 19.9848C23.898 20.5142 24.0781 21.0318 24.4227 21.4342L28.882 25.8935L25.8951 28.8804L24.4227 27.3869C24.0266 26.9908 23.4894 26.7683 22.9293 26.7683C22.3691 26.7683 21.8319 26.9908 21.4358 27.3869C21.0397 27.783 20.8172 28.3202 20.8172 28.8804C20.8172 29.4405 21.0397 29.9777 21.4358 30.3738L22.9293 31.8462L19.9634 34.8331L15.483 30.3738C15.0889 29.9821 14.5558 29.7622 14.0001 29.7622C13.4444 29.7622 12.9113 29.9821 12.5172 30.3738C12.1254 30.7679 11.9055 31.3011 11.9055 31.8568C11.9055 32.4125 12.1254 32.9456 12.5172 33.3397L16.9765 37.799L14.0106 40.7859L5.07098 31.8462L31.8479 5.06935L40.7875 14.009L37.8006 16.9749Z" fill="#FF3343"/>
<path d="M23.138 61L61.0001 61C61.5579 61 62.093 60.7784 62.4874 60.3839C62.8819 59.9894 63.1035 59.4544 63.1035 58.8966L63.1035 21.0345C63.1035 20.4766 62.8819 19.9416 62.4874 19.5471C62.093 19.1526 61.5579 18.931 61.0001 18.931H48.3794C47.8215 18.931 47.2865 19.1526 46.892 19.5471C46.4975 19.9416 46.2759 20.4766 46.2759 21.0345V44.1724H23.138C22.5801 44.1724 22.0451 44.394 21.6506 44.7885C21.2562 45.183 21.0345 45.718 21.0345 46.2759V58.8966C21.0345 59.4544 21.2562 59.9894 21.6506 60.3839C22.0451 60.7784 22.5801 61 23.138 61ZM25.2414 48.3793L29.4483 48.3793V50.4828C29.4483 51.0406 29.67 51.5756 30.0644 51.9701C30.4589 52.3646 30.9939 52.5862 31.5518 52.5862C32.1097 52.5862 32.6447 52.3646 33.0392 51.9701C33.4336 51.5756 33.6552 51.0406 33.6552 50.4828V48.3793H37.8621V50.4828C37.8621 51.0406 38.0837 51.5756 38.4782 51.9701C38.8727 52.3646 39.4077 52.5862 39.9656 52.5862C40.5235 52.5862 41.0585 52.3646 41.4529 51.9701C41.8474 51.5756 42.069 51.0406 42.069 50.4828V48.3793H46.2759V50.4828C46.2759 51.0406 46.4975 51.5756 46.892 51.9701C47.2865 52.3646 47.8215 52.5862 48.3794 52.5862C48.9372 52.5862 49.4723 52.3646 49.8667 51.9701C50.2612 51.5756 50.4828 51.0406 50.4828 50.4828V48.3793H52.5863C53.1441 48.3793 53.6792 48.1577 54.0736 47.7632C54.4681 47.3688 54.6897 46.8337 54.6897 46.2759C54.6897 45.718 54.4681 45.183 54.0736 44.7885C53.6792 44.394 53.1441 44.1724 52.5863 44.1724H50.4828V39.9655H52.5863C53.1441 39.9655 53.6792 39.7439 54.0736 39.3494C54.4681 38.955 54.6897 38.4199 54.6897 37.8621C54.6897 37.3042 54.4681 36.7692 54.0736 36.3747C53.6792 35.9802 53.1441 35.7586 52.5863 35.7586H50.4828V31.5517H52.5863C53.1441 31.5517 53.6792 31.3301 54.0736 30.9356C54.4681 30.5412 54.6897 30.0061 54.6897 29.4483C54.6897 28.8904 54.4681 28.3554 54.0736 27.9609C53.6792 27.5664 53.1441 27.3448 52.5863 27.3448H50.4828L50.4828 23.1379H58.8966L58.8966 56.7931L25.2414 56.7931V48.3793Z" fill="#FF3343"/>
</svg>
